P2
08 08
64
05 46 58 63 01 42 25 20 
02 59 22 29 57 27 08 56 
18 26 37 07 60 21 53 38 
52 16 15 23 43 44 32 35 
40 41 33 64 04 55 09 14 
61 11 39 12 13 49 24 51 
48 31 06 45 54 19 47 10 
34 30 50 17 28 03 62 36 
