P2
08 08
64
13 04 11 59 38 64 25 46 
30 34 56 20 24 41 26 29 
36 17 60 58 07 10 51 21 
48 62 09 39 40 08 12 42 
28 50 31 05 44 52 32 18 
35 49 57 02 45 03 53 16 
37 43 14 23 47 63 06 27 
33 01 22 54 15 19 55 61 
