P2
08 08
64
36 13 42 47 16 20 48 38 
57 05 24 04 56 60 01 53 
44 35 62 14 21 06 23 55 
27 03 19 40 30 34 64 43 
33 22 31 49 59 54 02 10 
08 61 41 46 11 26 52 15 
18 58 29 09 50 32 25 39 
37 63 12 51 17 28 45 07 
