P2
08 08
64
34 15 60 27 05 18 64 37 
59 28 45 39 16 02 36 35 
08 63 10 21 54 22 50 32 
11 30 31 42 17 62 09 58 
26 07 46 52 61 04 13 51 
49 14 01 47 57 43 24 25 
33 55 29 20 44 53 23 03 
40 48 38 12 06 56 41 19 
