P2
08 08
64
29 23 56 32 18 37 14 51 
11 41 25 57 10 26 28 62 
52 05 02 49 06 40 64 42 
61 36 38 22 50 33 12 08 
53 31 46 13 63 21 30 03 
09 54 34 55 07 39 04 58 
44 43 24 15 47 19 48 20 
01 27 35 17 59 45 60 16 
