P2
08 08
64
35 59 33 05 46 19 29 34 
32 42 11 27 38 45 58 07 
39 57 13 60 40 10 16 25 
30 14 64 53 23 31 21 24 
22 04 62 51 06 55 17 43 
37 08 56 03 12 49 47 48 
63 26 01 09 41 15 44 61 
02 50 20 52 54 36 28 18 
