P2
08 08
64
32 14 19 45 33 44 55 18 
20 60 52 39 12 08 23 46 
51 50 07 35 31 40 29 17 
03 62 25 26 24 37 22 61 
34 05 58 02 56 15 36 54 
10 16 47 43 63 30 09 42 
53 49 11 06 13 59 48 21 
57 04 41 64 28 27 38 01 
