P2
08 08
64
46 19 02 61 21 44 62 05 
15 30 29 39 60 08 24 55 
54 41 42 06 10 40 32 35 
23 37 22 25 52 31 57 13 
09 53 63 16 33 56 27 03 
04 48 45 49 38 11 01 64 
51 20 50 47 18 34 14 26 
58 12 07 17 28 36 43 59 
