P2
08 08
64
22 21 13 41 16 51 44 52 
58 05 61 36 24 07 10 59 
32 08 47 20 48 18 23 64 
37 60 12 26 17 62 35 11 
49 40 56 53 30 03 02 27 
06 55 43 50 14 39 38 15 
31 42 19 01 54 46 63 04 
25 29 09 33 57 34 45 28 
