P2
08 08
64
54 20 23 21 09 53 36 44 
10 39 17 25 57 48 59 05 
07 51 45 01 29 55 12 60 
43 18 15 58 22 24 64 16 
61 49 63 06 04 34 02 41 
26 33 38 50 37 14 30 32 
31 08 56 52 62 13 11 27 
28 42 03 47 40 19 46 35 
