P2
08 08
64
03 11 53 13 57 24 61 38 
64 06 62 25 21 27 15 40 
05 56 19 28 50 34 54 14 
37 58 32 47 04 10 12 60 
43 29 08 52 45 59 23 01 
22 36 18 48 07 63 49 17 
42 55 35 31 30 02 26 39 
44 09 33 16 46 41 20 51 
