P2
08 08
64
45 29 55 11 51 05 42 22 
26 53 43 39 36 54 01 08 
31 25 06 09 21 57 48 63 
56 27 10 41 61 12 49 04 
62 32 40 52 17 03 30 24 
07 02 19 34 33 47 60 58 
13 28 37 59 23 38 16 46 
20 64 50 15 18 44 14 35 
