P2
08 08
64
09 49 03 07 38 51 41 62 
60 56 32 15 12 50 22 13 
05 28 34 57 36 54 20 26 
25 58 02 40 06 23 42 64 
27 11 48 30 44 10 31 59 
46 16 33 39 43 19 63 01 
53 18 47 17 29 45 37 14 
35 24 61 55 52 08 04 21 
