P2
08 08
64
48 40 19 59 37 11 33 13 
23 39 31 18 01 42 61 45 
22 09 12 52 49 25 27 64 
02 51 54 32 07 17 63 34 
06 10 16 44 57 60 24 43 
56 47 20 46 21 29 03 38 
41 28 53 04 58 26 35 15 
62 36 55 05 30 50 14 08 
