P2
08 08
64
56 52 34 22 19 46 10 21 
26 25 04 39 53 40 49 24 
03 35 43 17 28 54 16 64 
37 44 61 45 30 13 23 07 
57 42 29 27 33 20 47 05 
08 18 36 58 31 09 59 41 
62 32 02 38 60 15 01 50 
11 12 51 14 06 63 55 48 
