P2
08 08
64
49 64 45 05 10 62 13 12 
16 33 14 15 21 55 47 59 
22 44 43 37 19 29 35 31 
54 01 11 46 28 17 53 50 
02 36 48 60 42 61 03 08 
38 34 18 24 57 23 26 40 
52 39 30 32 25 06 20 56 
27 09 51 41 58 07 63 04 
