P2
08 08
64
11 13 04 58 55 42 53 24 
19 30 14 60 20 57 17 43 
63 22 41 23 21 31 50 09 
32 45 35 34 48 08 18 40 
38 26 56 03 07 61 15 54 
10 27 37 25 59 47 39 16 
51 64 29 05 01 02 62 46 
36 33 44 52 49 12 06 28 
