P2
08 08
64
37 32 02 30 33 26 55 45 
01 20 62 23 27 50 56 21 
53 57 44 29 04 35 07 31 
64 18 46 22 51 06 25 28 
11 14 15 09 58 54 52 47 
42 63 17 38 10 12 19 59 
13 08 40 49 41 61 43 05 
39 48 34 60 36 16 03 24 
