P2
08 08
64
33 02 55 43 40 31 38 18 
07 14 45 41 37 32 56 28 
29 34 13 15 26 52 30 61 
54 47 24 35 05 62 10 23 
59 03 44 01 57 39 46 11 
42 51 48 12 09 19 21 58 
16 60 04 63 22 17 53 25 
20 49 27 50 64 08 06 36 
