P2
08 08
64
04 64 36 48 02 46 59 01 
34 18 52 07 22 33 54 40 
24 32 49 23 30 38 61 03 
37 16 17 55 42 25 15 53 
56 08 63 10 45 06 28 44 
57 31 26 39 14 20 13 60 
21 62 05 35 58 51 19 09 
27 29 12 43 47 41 11 50 
