P2
08 08
64
35 58 10 24 02 59 21 51 
39 64 17 29 60 43 07 01 
46 33 26 57 61 19 13 05 
14 48 45 25 37 15 34 42 
06 03 38 55 27 30 52 49 
32 22 40 08 50 09 63 36 
41 04 53 18 11 23 54 56 
47 28 31 44 12 62 16 20 
