P2
08 08
64
48 12 24 36 02 22 59 57 
54 55 32 05 21 35 39 19 
33 08 51 15 60 40 25 28 
23 14 62 34 11 45 29 42 
17 09 30 26 49 64 18 47 
37 43 20 41 38 07 16 58 
44 63 31 50 52 01 13 06 
04 56 10 53 27 46 61 03 
