P2
08 08
64
09 26 40 30 64 25 11 55 
31 62 41 04 27 07 51 37 
58 20 21 14 18 23 54 52 
08 12 33 60 53 35 43 16 
45 06 42 01 39 63 59 05 
61 50 02 48 36 22 24 17 
19 46 32 56 13 57 03 34 
29 38 49 47 10 28 15 44 
