P2
08 08
64
05 38 54 15 02 63 50 33 
40 20 34 45 19 61 30 11 
29 04 44 23 52 51 09 48 
37 18 47 62 39 22 27 08 
28 55 07 36 26 10 42 56 
21 60 12 13 41 46 53 14 
57 16 03 31 64 06 25 58 
43 49 59 35 17 01 24 32 
