P2
08 08
64
57 41 01 53 55 21 20 12 
46 06 17 22 37 32 36 64 
04 43 52 05 09 63 61 23 
56 45 38 24 02 34 03 58 
19 31 48 14 49 33 15 51 
35 28 47 62 40 08 11 29 
16 59 18 30 26 44 54 13 
27 07 39 50 42 25 60 10 
