P2
08 08
64
41 09 62 49 33 25 24 17 
23 26 48 20 57 16 19 51 
12 04 39 54 61 40 32 18 
05 63 14 30 31 43 46 28 
38 34 35 58 02 15 42 36 
59 52 27 01 11 56 07 47 
22 08 06 45 55 21 53 50 
60 64 29 03 10 44 37 13 
