P2
08 08
64
02 43 16 19 39 58 24 59 
18 63 30 34 55 15 03 42 
36 40 50 35 17 47 07 28 
52 05 22 53 04 06 56 62 
08 11 51 44 21 41 57 27 
60 12 31 64 25 26 33 09 
61 49 14 01 54 29 32 20 
23 37 46 10 45 38 48 13 
