P2
08 08
64
49 01 56 02 17 59 60 16 
20 47 33 52 18 22 31 37 
50 06 36 48 35 62 13 10 
58 45 55 03 41 11 39 08 
28 25 07 12 57 27 40 64 
04 61 34 42 29 23 14 53 
30 43 24 38 09 51 19 46 
21 32 15 63 54 05 44 26 
