P2
08 08
64
18 35 39 59 55 02 33 19 
12 09 41 27 15 31 62 63 
54 42 49 04 30 06 38 37 
03 26 36 21 45 57 58 14 
56 10 17 40 52 61 16 08 
13 60 01 43 24 64 05 50 
51 34 48 20 28 07 25 47 
53 44 29 46 11 32 23 22 
