P2
08 08
64
59 04 45 29 40 27 06 50 
03 07 16 31 61 49 54 39 
02 26 38 41 08 57 53 35 
56 62 30 20 15 22 36 19 
60 23 52 14 18 33 48 12 
43 47 10 64 42 09 11 34 
05 28 25 37 55 46 51 13 
32 63 44 24 21 17 01 58 
