P2
08 08
64
43 30 39 29 09 51 21 38 
63 20 16 27 46 26 44 18 
02 60 05 41 14 64 42 32 
54 13 58 33 52 03 10 37 
28 61 15 12 53 57 23 11 
19 17 24 55 48 08 49 40 
50 25 47 04 31 45 36 22 
01 34 56 59 07 06 35 62 
