P2
08 08
64
31 10 21 60 29 62 03 44 
34 48 58 13 08 05 61 33 
35 40 55 56 37 24 04 09 
52 59 06 16 46 23 11 47 
43 25 17 36 22 41 50 26 
07 27 28 64 20 18 42 54 
39 02 63 01 45 57 38 15 
19 49 12 14 53 30 51 32 
