P2
08 08
64
43 22 36 04 63 12 20 60 
15 03 31 49 39 28 45 50 
42 56 01 59 23 10 64 05 
55 33 11 25 06 48 52 30 
18 44 62 54 38 07 02 35 
58 32 53 08 29 57 14 09 
16 19 26 27 41 61 46 24 
13 51 40 34 21 37 17 47 
