P2
08 08
64
31 26 55 06 34 30 28 50 
45 39 01 42 20 58 53 02 
10 64 62 36 49 24 12 03 
61 16 21 47 33 15 59 08 
23 63 35 60 05 19 09 46 
51 17 11 14 25 29 57 56 
32 22 48 18 40 44 04 52 
07 13 27 37 54 41 38 43 
