P2
08 08
64
11 33 46 19 53 49 26 23 
48 34 01 16 09 57 50 45 
28 17 36 32 61 27 12 47 
10 21 40 60 07 04 55 63 
39 03 54 24 18 43 64 15 
06 52 25 38 59 37 13 30 
56 42 44 51 22 02 35 08 
62 58 14 20 31 41 05 29 
