P2
08 08
64
21 34 59 50 28 15 01 52 
37 10 45 40 53 32 14 29 
30 27 08 25 35 61 33 41 
05 56 38 36 47 02 54 22 
51 62 43 18 04 19 39 24 
63 17 09 58 13 64 16 20 
42 48 03 26 49 23 57 12 
11 06 55 07 31 44 46 60 
