P2
08 08
64
29 25 13 16 10 52 58 57 
46 23 62 39 22 56 09 03 
40 17 37 64 34 20 21 27 
28 38 08 30 33 60 51 12 
19 14 49 26 44 31 59 18 
35 54 01 63 50 05 11 41 
02 53 42 07 24 32 45 55 
61 36 48 15 43 04 06 47 
