P2
08 08
64
41 20 07 45 55 21 54 17 
46 30 60 63 12 18 05 26 
34 36 35 22 04 57 08 64 
02 50 48 15 58 24 16 47 
13 27 11 32 43 42 61 31 
28 59 14 10 06 38 52 53 
56 37 23 44 49 09 39 03 
40 01 62 29 33 51 25 19 
