P2
08 08
64
21 03 26 58 45 63 13 31 
20 54 60 32 49 04 22 19 
47 09 33 51 39 38 29 14 
07 37 56 64 41 15 16 24 
40 57 11 25 06 48 23 50 
43 17 27 10 35 12 61 55 
36 30 42 02 01 28 62 59 
46 53 05 18 44 52 34 08 
