P2
08 08
64
42 05 50 23 25 64 43 08 
62 21 45 13 10 19 51 39 
01 56 47 61 04 18 14 59 
32 20 24 48 58 02 35 41 
55 40 09 46 07 44 31 28 
37 63 30 06 49 27 12 36 
15 33 26 03 54 34 57 38 
16 22 29 60 53 52 17 11 
