P2
08 08
64
29 14 18 03 61 58 47 30 
52 63 07 56 11 20 32 19 
42 37 01 31 62 05 60 22 
28 09 53 51 06 64 25 24 
44 26 40 41 46 12 35 16 
02 49 48 43 21 10 33 54 
04 39 55 27 36 34 15 50 
59 23 38 08 17 57 13 45 
