P2
08 08
64
41 04 09 48 10 55 31 62 
28 32 50 25 07 24 42 52 
11 59 38 54 44 03 18 33 
46 58 19 08 64 45 14 06 
43 01 63 12 27 40 35 39 
23 13 05 49 61 51 56 02 
53 57 16 17 26 20 34 37 
15 36 60 47 21 22 30 29 
