P2
08 08
64
55 32 62 06 31 33 14 27 
35 25 53 08 15 46 37 41 
03 56 16 59 57 07 42 20 
64 21 17 30 45 26 05 52 
39 04 19 23 54 34 44 43 
02 12 10 49 48 38 61 40 
11 60 47 22 09 58 29 24 
51 50 36 63 01 18 28 13 
