P2
08 08
64
24 48 50 14 12 64 23 25 
57 10 19 62 31 02 18 61 
01 42 40 51 54 06 39 27 
55 08 32 26 43 60 07 29 
22 56 11 30 63 44 21 13 
33 09 47 05 37 34 59 36 
15 38 16 52 17 46 35 41 
53 49 45 20 03 04 58 28 
