P2
08 08
64
23 54 22 41 50 63 06 01 
17 26 39 29 34 09 51 55 
40 57 31 32 15 04 36 45 
42 10 49 52 30 02 13 62 
47 24 25 33 59 60 07 05 
11 44 53 37 35 12 48 20 
19 27 38 08 21 46 43 58 
61 18 03 28 16 64 56 14 
