P2
08 08
64
13 63 31 26 14 20 40 53 
28 01 61 60 19 16 50 25 
58 15 33 10 39 36 22 47 
45 59 27 29 52 41 04 03 
37 06 64 18 57 23 46 09 
17 49 08 44 34 55 05 48 
30 11 12 38 02 62 51 54 
32 56 24 35 43 07 42 21 
