P2
08 08
64
59 09 15 62 33 41 06 35 
32 23 57 19 04 34 60 31 
48 11 36 14 50 21 52 28 
40 38 20 29 54 13 39 27 
18 47 63 08 45 16 37 26 
02 53 01 43 44 58 17 42 
10 30 12 61 25 55 03 64 
51 49 56 24 05 22 46 07 
