P2
08 08
64
54 42 16 15 18 44 32 39 
03 26 59 36 37 02 46 51 
22 48 52 50 08 61 05 14 
57 10 34 30 09 12 53 55 
56 29 35 25 07 40 04 64 
11 17 06 38 60 62 43 23 
24 41 31 45 58 20 28 13 
33 47 27 21 63 19 49 01 
