P2
08 08
64
36 26 51 08 45 24 07 63 
31 06 53 60 54 15 14 27 
16 56 37 30 02 57 59 03 
55 34 05 33 21 38 25 49 
47 46 35 19 50 12 42 09 
61 20 29 58 48 23 17 04 
01 44 40 11 18 52 32 62 
13 28 10 41 22 39 64 43 
