P2
08 08
64
53 30 54 32 14 07 62 08 
44 60 11 03 31 46 17 48 
16 36 28 51 34 58 15 22 
57 09 18 13 23 55 45 40 
25 35 50 56 10 19 39 26 
37 20 33 01 63 42 12 52 
04 41 02 61 38 06 49 59 
24 29 64 43 47 27 21 05 
