P2
08 08
64
31 45 02 14 01 54 57 56 
35 13 17 59 48 22 41 25 
33 18 64 27 34 06 38 40 
49 11 42 26 03 60 50 19 
21 58 16 08 44 61 05 47 
55 10 62 51 24 15 07 36 
04 52 37 46 43 30 39 09 
32 53 20 29 63 12 23 28 
