P2
08 08
64
19 55 37 47 07 15 38 42 
51 59 10 61 22 03 48 06 
17 28 33 31 63 36 02 50 
14 23 27 35 43 62 40 16 
57 32 25 11 30 12 54 39 
41 26 20 46 45 18 04 60 
09 08 44 05 49 58 53 34 
52 29 64 24 01 56 21 13 
