P2
08 08
64
41 08 56 25 23 09 39 59 
44 50 32 24 57 22 19 12 
33 52 55 18 04 28 36 34 
02 61 05 14 10 62 43 63 
26 07 01 40 49 60 29 48 
31 45 47 53 54 11 03 16 
46 20 58 35 21 38 27 15 
37 17 06 51 42 30 64 13 
