P2
08 08
64
43 14 61 44 15 21 28 34 
55 57 27 40 05 56 12 08 
07 47 19 24 30 53 16 64 
13 11 20 32 37 33 52 62 
60 39 01 42 51 22 41 04 
35 25 49 06 46 17 23 59 
45 31 29 63 18 10 38 26 
02 36 54 09 58 48 50 03 
