P2
08 08
64
10 31 62 61 39 17 11 29 
57 42 24 02 23 44 64 04 
27 09 13 54 48 55 28 26 
36 46 05 35 19 15 59 45 
53 43 16 03 49 30 14 52 
08 20 33 12 50 58 41 38 
18 06 60 56 25 40 21 34 
51 63 47 37 07 01 22 32 
