P2
08 08
64
13 51 10 31 11 55 41 48 
38 19 18 47 08 40 33 57 
34 21 53 30 22 28 63 09 
56 20 61 46 44 12 06 15 
58 35 07 17 26 54 36 27 
43 37 24 01 39 64 03 49 
04 52 42 59 50 05 16 32 
14 25 45 29 60 02 62 23 
