P2
08 08
64
35 26 18 29 44 41 24 43 
15 53 19 33 36 47 02 55 
22 51 27 39 54 06 40 21 
16 64 61 11 31 25 32 20 
60 05 14 62 03 23 37 56 
08 38 45 07 01 59 50 52 
46 13 28 30 34 42 63 04 
58 10 48 49 57 17 12 09 
