P2
08 08
64
10 13 56 39 63 27 20 32 
12 60 06 26 22 64 19 51 
47 18 08 48 37 57 24 21 
41 49 44 43 59 15 05 04 
50 34 40 03 29 42 61 01 
58 23 38 16 30 02 31 62 
07 17 54 52 11 28 55 36 
35 46 14 33 09 25 45 53 
