P2
08 08
64
31 50 20 32 24 22 29 52 
54 53 28 45 62 01 11 06 
48 13 51 43 12 17 34 42 
35 21 19 27 23 56 30 49 
26 10 64 14 39 41 63 03 
04 15 25 59 55 18 44 40 
05 61 07 38 09 47 33 60 
57 37 46 02 36 58 16 08 
