P2
08 08
64
31 23 32 04 62 34 39 35 
20 57 21 45 22 09 38 48 
53 51 30 36 03 27 50 10 
63 11 33 24 25 43 17 44 
12 06 52 61 56 58 08 07 
01 28 19 46 37 16 49 64 
54 29 59 02 15 13 41 47 
26 55 14 42 40 60 18 05 
