P2
08 08
64
33 39 38 55 09 18 46 22 
07 42 19 50 47 60 20 15 
62 12 45 16 61 37 14 13 
57 48 25 06 64 08 01 51 
27 53 03 30 04 49 36 58 
34 17 35 32 10 24 52 56 
11 23 41 40 21 59 63 02 
29 26 54 31 44 05 28 43 
