P2
08 08
64
31 43 56 04 63 30 21 12 
06 38 19 14 59 60 03 61 
22 05 40 24 48 47 28 46 
52 35 34 53 25 11 33 17 
08 39 26 51 15 23 62 36 
54 02 44 64 07 18 58 13 
50 41 32 49 16 42 10 20 
37 57 09 01 27 29 45 55 
