P2
08 08
64
63 49 11 51 08 32 43 03 
25 39 28 31 57 20 05 55 
42 50 22 02 12 15 58 59 
52 01 19 34 40 38 30 46 
07 23 54 64 27 29 09 47 
14 04 56 17 48 44 61 16 
33 53 10 26 62 37 18 21 
24 41 60 35 06 45 36 13 
