P2
08 08
64
44 49 08 27 13 25 32 62 
50 26 59 10 40 07 52 16 
15 58 51 43 14 55 02 22 
06 35 29 41 04 60 46 39 
53 11 01 31 24 56 48 36 
63 20 21 42 64 19 28 03 
17 23 61 09 54 33 18 45 
12 38 30 57 47 05 34 37 
