P2
08 08
64
10 22 45 57 46 02 29 49 
18 31 59 19 09 53 56 15 
32 20 13 39 38 21 63 34 
30 52 23 37 07 25 28 58 
43 48 36 03 61 08 17 44 
14 05 26 40 60 54 06 55 
62 47 16 24 27 33 50 01 
51 35 42 41 12 64 11 04 
