P2
08 08
64
49 22 61 16 50 11 32 19 
03 60 40 55 27 26 24 25 
10 43 35 63 07 53 04 45 
46 18 23 15 14 39 48 57 
47 02 36 06 17 37 56 59 
09 33 52 44 30 29 62 01 
58 54 08 20 64 31 13 12 
38 28 05 41 51 34 21 42 
