P2
08 08
64
53 05 07 48 01 31 58 57 
28 35 44 06 47 29 12 59 
62 38 02 40 17 43 55 03 
20 45 39 61 49 25 11 10 
21 60 52 15 32 34 30 16 
08 36 51 37 64 09 13 42 
54 19 41 26 46 33 18 23 
14 22 24 27 04 56 63 50 
