P2
08 08
64
36 64 31 32 38 03 16 40 
10 19 59 37 29 01 43 62 
25 33 54 26 44 58 12 08 
55 15 24 05 07 57 34 63 
50 18 06 60 51 42 20 13 
47 39 02 11 04 56 53 48 
14 27 49 61 41 21 30 17 
23 45 35 28 46 22 52 09 
