P2
08 08
64
11 28 16 30 22 49 60 44 
47 39 64 29 01 19 40 21 
56 52 25 27 06 10 41 43 
57 08 51 33 38 62 07 04 
45 46 26 55 58 15 02 13 
24 20 34 05 53 32 42 50 
17 36 09 63 23 61 14 37 
03 31 35 18 59 12 54 48 
