P2
08 08
64
55 04 63 32 18 53 14 21 
42 13 30 43 61 11 24 36 
07 23 27 16 17 60 58 52 
15 59 25 03 39 20 48 51 
38 41 01 34 46 49 29 22 
62 45 44 26 09 57 12 05 
31 28 06 56 37 08 40 54 
10 47 64 50 33 02 35 19 
