P2
08 08
64
56 45 23 04 51 03 32 46 
12 44 22 02 07 62 53 58 
21 19 10 57 54 27 55 17 
29 06 50 47 40 52 01 35 
13 33 49 24 38 37 41 25 
36 48 14 28 43 15 16 60 
63 26 61 34 18 05 42 11 
30 39 31 64 09 59 20 08 
