P2
08 08
64
43 37 06 63 18 12 20 61 
26 25 27 40 31 36 16 59 
49 01 46 15 60 55 10 24 
05 56 07 53 11 54 32 42 
39 45 57 03 04 44 47 21 
28 34 58 19 33 35 30 23 
62 48 09 29 52 02 41 17 
08 14 50 38 51 22 64 13 
