P2
08 08
64
59 54 12 36 01 39 08 51 
58 15 23 60 41 35 07 21 
34 14 38 10 50 13 48 53 
43 06 62 32 44 16 31 26 
03 55 11 64 28 30 49 20 
56 09 33 04 47 45 42 24 
05 46 29 37 22 63 18 40 
02 61 52 17 27 19 57 25 
