P2
08 08
64
23 52 12 24 62 07 42 38 
34 28 25 54 21 48 39 11 
43 13 55 04 50 22 32 41 
58 36 15 53 06 56 35 01 
09 02 26 17 64 63 19 60 
18 51 61 05 16 14 46 49 
45 47 29 44 08 10 20 57 
30 31 37 59 33 40 27 03 
