P2
08 08
64
10 60 38 15 33 11 61 32 
30 01 55 50 54 24 40 06 
04 42 57 37 08 51 14 47 
64 34 27 13 31 46 19 26 
23 59 17 63 43 05 28 22 
56 03 02 12 53 35 41 58 
48 16 20 49 29 52 39 07 
25 45 44 21 09 36 18 62 
