P2
08 08
64
58 26 42 01 18 61 43 11 
46 59 15 55 47 04 10 24 
62 03 35 08 44 49 45 14 
37 07 29 63 39 31 33 21 
13 28 12 30 17 36 64 60 
09 34 52 57 25 06 23 54 
16 50 48 05 32 51 02 56 
19 53 27 41 38 22 40 20 
