P2
08 08
64
33 24 13 34 30 23 55 48 
36 38 37 05 32 61 31 20 
49 54 07 39 22 35 53 01 
15 59 16 50 40 19 03 58 
25 09 60 46 62 11 06 41 
47 02 21 27 42 08 56 57 
26 10 63 45 04 51 44 17 
29 64 43 14 28 52 12 18 
