P2
08 08
64
05 21 43 36 28 39 55 33 
15 48 01 19 61 30 51 35 
13 56 62 17 42 12 11 47 
34 46 26 16 02 38 53 45 
50 22 31 32 60 14 27 24 
54 29 63 37 03 57 07 10 
40 18 09 44 23 64 04 58 
49 20 25 59 41 06 52 08 
