P2
08 08
64
22 37 20 01 29 63 50 38 
56 15 41 32 62 40 06 08 
18 04 49 55 11 26 52 45 
25 33 34 57 35 54 17 05 
13 59 43 42 12 14 61 16 
60 21 39 48 07 24 10 51 
19 27 31 23 58 30 28 44 
47 64 03 02 46 09 36 53 
