P2
08 08
64
61 26 31 09 05 52 21 55 
40 39 30 56 60 13 15 07 
08 33 34 25 51 41 64 04 
50 17 35 20 11 45 53 29 
14 42 12 58 01 48 38 47 
32 43 59 24 54 19 02 27 
37 03 49 22 62 36 23 28 
18 57 10 46 16 06 44 63 
