P2
08 08
64
23 32 61 43 08 02 35 56 
62 45 59 14 31 26 13 10 
15 22 06 48 44 63 53 09 
01 50 40 17 49 29 33 41 
46 52 03 11 47 27 16 58 
54 05 30 25 55 51 12 28 
39 18 57 60 07 24 34 21 
20 36 04 42 19 38 64 37 
