P2
08 08
64
46 05 41 32 04 52 43 37 
34 59 35 31 19 33 11 38 
16 55 17 61 49 44 10 08 
50 60 03 09 53 23 36 26 
47 14 40 30 25 29 21 54 
27 58 56 12 42 01 51 13 
18 07 48 57 06 15 64 45 
22 02 20 28 62 63 24 39 
