P2
08 08
64
11 47 10 28 44 43 21 56 
62 64 06 20 01 63 25 19 
33 13 40 50 42 16 05 61 
02 15 32 58 39 31 45 38 
36 59 60 03 27 18 34 23 
53 04 54 35 30 24 52 08 
37 41 12 57 22 14 29 48 
26 17 46 09 55 51 49 07 
