P2
08 08
64
13 29 27 05 49 58 43 36 
44 17 20 30 59 23 45 22 
18 51 28 53 08 37 34 31 
42 06 26 57 46 16 04 63 
41 48 64 09 47 15 03 33 
62 50 10 52 12 02 61 11 
01 38 60 19 07 55 56 24 
39 21 25 35 32 54 14 40 
