P2
08 08
64
53 10 26 15 14 56 24 62 
40 51 08 30 19 38 35 39 
01 43 45 63 22 37 32 17 
33 27 57 31 25 20 44 23 
41 18 59 03 07 13 64 55 
29 47 49 06 52 16 50 11 
42 28 12 58 60 46 09 05 
21 36 04 54 61 34 02 48 
