P2
08 08
64
25 28 01 41 61 47 09 48 
52 37 38 02 27 42 23 39 
32 36 49 33 13 19 24 54 
17 60 46 44 35 31 07 20 
12 30 51 53 18 04 63 29 
11 58 21 10 64 22 15 59 
56 06 14 43 26 45 62 08 
55 05 40 34 16 50 57 03 
