P2
08 08
64
46 61 42 15 22 28 40 06 
25 57 45 26 08 07 36 56 
30 23 03 43 60 48 02 51 
19 24 13 16 33 59 52 44 
10 09 05 58 53 41 64 20 
49 35 34 01 62 29 38 12 
50 14 55 47 18 27 17 32 
31 37 63 54 04 21 11 39 
