P2
08 08
64
04 63 64 15 30 22 43 19 
38 55 05 26 49 39 45 03 
07 18 13 58 57 56 20 31 
51 27 44 60 16 28 23 11 
25 14 53 59 21 02 46 40 
33 62 01 24 06 36 37 61 
50 12 48 10 47 35 17 41 
52 09 32 08 34 42 29 54 
