P2
08 08
64
45 21 09 58 53 25 44 05 
38 29 16 34 11 63 26 43 
31 27 08 18 35 49 59 33 
48 46 47 17 19 06 36 41 
10 42 55 01 50 28 54 20 
12 52 60 62 13 22 02 37 
15 39 51 40 56 03 32 24 
61 04 14 30 23 64 07 57 
