P2
08 08
64
42 64 29 03 06 12 48 56 
33 15 51 59 41 46 02 13 
19 31 20 09 35 60 61 25 
05 16 23 55 54 43 28 36 
47 52 17 32 50 24 34 04 
62 22 37 58 10 14 27 30 
44 11 38 18 63 40 07 39 
08 49 45 26 01 21 53 57 
