P2
08 08
64
24 23 13 33 34 43 54 36 
03 25 53 26 04 41 64 44 
32 57 21 47 37 01 07 58 
46 31 52 02 63 42 06 18 
51 16 28 45 50 14 08 48 
60 56 29 19 12 59 10 15 
39 17 55 27 40 22 49 11 
05 35 09 61 20 38 62 30 
