P2
08 08
64
10 36 34 25 58 31 54 12 
62 11 55 33 26 21 28 24 
06 01 59 43 47 46 51 07 
60 19 09 22 30 45 14 61 
37 52 38 40 27 15 03 48 
17 35 16 42 44 18 56 32 
29 49 41 53 05 20 50 13 
39 57 08 02 23 64 04 63 
