P2
08 08
64
25 47 01 27 26 57 21 56 
59 05 38 49 63 14 09 23 
40 46 37 04 11 44 30 48 
10 17 60 62 16 02 58 35 
36 61 53 29 31 24 20 06 
12 32 39 03 55 50 28 41 
45 34 13 22 07 54 42 43 
33 18 19 64 51 15 52 08 
