P2
08 08
64
01 51 20 31 28 42 55 32 
16 58 46 64 09 18 44 05 
37 50 39 27 19 29 35 24 
59 61 41 15 49 06 21 08 
30 22 45 38 53 40 07 25 
57 04 23 17 43 02 52 62 
26 11 13 54 12 60 36 48 
34 03 33 14 47 63 10 56 
