P2
08 08
64
60 24 39 40 29 20 07 41 
10 14 42 51 30 22 43 48 
38 11 36 57 13 55 04 46 
37 21 56 34 02 26 53 31 
16 47 19 03 61 50 59 05 
63 23 49 52 28 08 25 12 
27 58 01 06 64 44 15 45 
09 62 18 17 33 35 54 32 
