P2
08 08
64
49 33 54 31 24 15 09 45 
53 46 11 02 26 63 25 34 
01 58 05 61 32 27 28 48 
36 29 18 38 64 19 40 16 
06 14 41 03 47 50 57 42 
12 37 10 21 30 39 56 55 
52 35 59 60 20 04 23 07 
51 08 62 44 17 43 22 13 
