P2
08 08
64
51 44 27 30 59 10 36 03 
34 24 45 32 02 42 43 38 
55 41 20 28 22 11 23 60 
52 01 14 56 35 07 62 33 
09 12 31 15 47 50 39 57 
05 48 54 64 06 21 13 49 
08 53 29 17 63 61 25 04 
46 37 40 18 26 58 19 16 
