P2
08 08
64
08 50 44 37 21 39 03 58 
63 23 14 43 22 55 31 09 
04 42 41 46 24 28 13 62 
47 06 27 64 01 40 57 18 
48 36 51 34 45 15 05 26 
59 38 30 12 32 19 60 10 
02 49 33 17 61 11 35 52 
29 16 20 07 54 53 56 25 
