P2
08 08
64
55 11 35 24 51 56 08 20 
10 36 02 28 60 61 48 15 
13 39 30 32 19 07 63 57 
05 17 49 27 53 22 62 25 
23 52 41 31 18 45 16 34 
37 64 03 50 09 43 21 33 
59 40 46 26 44 12 04 29 
58 01 54 42 06 14 38 47 
