P2
08 08
64
36 63 13 42 31 07 09 59 
53 15 54 40 34 10 49 05 
04 26 28 12 52 19 57 62 
47 44 32 24 11 45 43 14 
22 27 64 18 23 61 08 37 
60 06 48 30 25 33 41 17 
03 21 20 55 38 56 51 16 
35 58 01 39 46 29 02 50 
