P2
08 08
64
46 08 16 34 43 22 49 42 
15 28 58 05 30 55 24 45 
37 62 36 31 38 13 40 03 
11 01 39 60 10 64 27 48 
61 32 12 50 14 56 02 33 
47 59 57 07 54 06 04 26 
20 41 25 52 18 09 51 44 
23 29 17 21 53 35 63 19 
