P2
08 08
64
55 43 27 05 34 35 38 23 
01 42 19 57 13 21 56 51 
07 36 62 37 49 30 15 24 
52 28 33 09 31 06 47 54 
22 20 45 59 02 44 39 29 
60 16 03 41 64 40 25 11 
17 12 61 48 14 26 32 50 
46 63 10 04 53 58 08 18 
