P2
08 08
64
50 04 63 53 11 45 01 33 
38 43 03 34 40 61 28 13 
15 35 14 27 52 39 21 57 
58 22 37 55 30 10 42 06 
02 62 25 54 08 18 44 47 
29 09 31 20 60 07 56 48 
49 26 46 12 36 16 51 24 
19 59 41 05 23 64 17 32 
