P2
08 08
64
23 21 58 18 55 08 37 40 
62 32 03 39 11 27 36 50 
51 54 33 22 31 20 34 15 
14 63 38 52 19 48 16 10 
12 25 28 13 24 60 45 53 
49 05 26 64 61 06 42 07 
02 59 17 09 30 56 46 41 
47 01 57 43 29 35 04 44 
