P2
08 08
64
05 18 61 19 63 37 21 36 
34 39 08 60 33 06 50 30 
28 27 14 29 59 56 09 38 
47 26 62 17 16 45 32 15 
42 54 43 02 64 03 04 48 
51 22 10 44 13 40 57 23 
12 49 55 31 01 53 35 24 
41 25 07 58 11 20 52 46 
