P2
08 08
64
36 31 05 48 16 02 64 58 
26 45 03 32 33 59 38 24 
40 07 49 25 51 23 12 53 
21 47 57 29 41 09 10 46 
43 30 39 17 13 56 61 01 
22 52 37 04 11 63 27 44 
54 28 08 55 60 34 06 15 
18 20 62 50 35 14 42 19 
