P2
08 08
64
28 42 26 17 62 11 38 36 
05 30 53 56 21 22 54 19 
47 63 40 51 04 44 02 09 
46 32 01 41 13 23 43 61 
15 12 55 27 31 50 64 06 
37 39 45 07 60 18 25 29 
49 08 16 03 59 57 20 48 
33 34 24 58 10 35 14 52 
