P2
08 08
64
55 09 58 25 19 31 37 26 
23 29 06 64 17 49 11 61 
59 07 13 56 10 42 41 32 
02 46 21 30 57 16 54 34 
22 51 39 27 44 36 08 33 
24 52 20 12 63 40 48 01 
60 62 50 28 05 03 14 38 
15 04 53 18 45 43 47 35 
