P2
08 08
64
58 04 09 56 40 01 49 43 
64 61 08 23 20 27 05 52 
11 35 07 42 36 39 57 33 
12 10 63 19 25 55 50 26 
22 29 44 06 53 30 14 62 
13 47 37 38 21 32 54 18 
34 59 51 31 17 16 28 24 
46 15 41 45 48 60 03 02 
