P2
08 08
64
14 63 06 45 15 31 52 34 
56 12 26 32 42 07 35 50 
39 20 11 47 17 57 59 10 
02 44 62 61 09 40 13 29 
33 49 01 24 55 64 04 30 
58 03 51 25 53 05 27 38 
36 28 43 18 23 37 54 21 
22 41 60 08 46 19 16 48 
