P2
08 08
64
22 56 12 20 44 28 35 43 
27 02 61 10 55 37 23 45 
19 53 18 64 13 47 07 39 
60 24 14 30 01 54 62 15 
25 46 21 49 59 41 16 03 
29 34 50 32 06 09 52 48 
36 05 58 38 51 11 57 04 
42 40 26 17 31 33 08 63 
