P2
08 08
64
30 40 31 37 18 16 61 27 
44 59 08 03 50 58 14 24 
04 15 34 11 64 23 49 60 
62 35 09 47 21 19 13 54 
20 28 41 51 39 43 02 36 
26 32 57 12 05 17 63 48 
52 45 38 46 07 29 33 10 
22 06 42 53 56 55 25 01 
