P2
08 08
64
19 35 14 31 39 44 29 49 
40 26 25 22 46 55 10 36 
01 57 52 15 63 21 18 33 
60 17 12 51 02 09 61 48 
58 32 37 50 06 56 13 08 
54 28 43 04 24 27 64 16 
05 62 30 53 38 41 20 11 
23 03 47 34 42 07 45 59 
