P2
08 08
64
53 45 28 31 08 35 44 16 
37 51 02 48 54 03 61 04 
34 12 52 36 42 38 14 32 
11 47 40 17 26 39 30 50 
43 22 15 29 05 55 33 58 
63 19 20 18 60 10 46 24 
06 57 62 25 01 59 23 27 
13 07 41 56 64 21 09 49 
