P2
08 08
64
41 48 55 27 34 25 02 28 
38 56 03 20 35 29 49 30 
22 45 21 26 16 37 47 46 
62 15 58 05 31 07 50 32 
44 33 52 36 13 60 18 04 
12 42 51 39 09 40 14 53 
24 11 19 64 59 54 23 06 
17 10 01 43 63 08 57 61 
