P2
08 08
64
20 16 57 21 58 18 07 63 
32 39 52 23 09 19 38 48 
13 08 61 44 41 31 47 15 
60 10 22 43 50 26 14 35 
56 49 03 36 17 25 34 40 
06 64 02 05 28 42 59 54 
62 29 12 33 30 53 37 04 
11 45 51 55 27 46 24 01 
