P2
08 08
64
28 16 43 61 46 12 33 21 
55 22 40 35 02 42 56 08 
50 51 39 20 03 31 34 32 
57 38 07 27 15 37 25 54 
36 47 58 53 26 29 06 05 
14 17 59 23 63 09 13 62 
19 24 04 30 64 52 49 18 
01 45 10 11 41 48 44 60 
