P2
08 08
64
41 21 25 26 36 30 52 29 
40 11 46 37 60 28 32 06 
19 47 59 45 09 23 27 31 
39 01 42 62 44 16 18 38 
07 14 48 15 02 61 56 57 
54 49 03 08 58 12 33 43 
10 64 24 63 17 55 22 05 
50 53 13 04 34 35 20 51 
