P2
08 08
64
36 37 18 25 48 44 40 12 
14 28 47 61 42 09 16 43 
41 32 46 04 05 64 23 45 
03 21 07 58 26 57 50 38 
31 20 27 01 49 10 60 62 
63 15 56 30 53 13 06 24 
39 52 51 59 02 29 11 17 
33 55 08 22 35 34 54 19 
