P2
08 08
64
51 32 46 55 56 01 03 16 
47 11 61 12 41 10 40 38 
36 52 06 35 43 17 37 34 
39 02 23 45 20 59 15 57 
04 48 21 62 14 26 31 54 
42 53 28 27 13 60 07 30 
08 44 25 19 49 29 64 22 
33 18 50 05 24 58 63 09 
