P2
08 08
64
26 63 42 05 48 08 07 61 
43 52 32 33 20 40 16 24 
59 04 36 29 58 01 55 18 
46 11 12 30 45 54 37 25 
10 13 38 56 15 62 64 02 
39 50 22 17 03 35 34 60 
31 53 57 41 27 09 19 23 
06 14 21 49 44 51 28 47 
