P2
08 08
64
06 29 63 64 24 19 04 51 
57 45 28 25 36 48 08 13 
14 21 34 23 50 22 54 42 
11 27 39 03 60 38 62 20 
30 37 07 10 53 47 41 35 
52 44 61 33 02 49 18 01 
59 17 12 56 26 32 15 43 
31 40 16 46 09 05 58 55 
