P2
08 08
64
08 53 30 50 37 16 62 04 
60 15 45 25 09 19 43 44 
13 40 33 56 07 52 17 42 
36 03 18 38 27 57 46 35 
31 58 55 14 49 20 21 12 
02 23 28 22 64 59 11 51 
47 29 10 54 06 32 34 48 
63 39 41 01 61 05 26 24 
