P2
08 08
64
55 45 54 04 09 29 05 59 
16 23 12 21 53 26 62 47 
58 11 01 37 56 13 64 20 
50 63 34 38 14 43 08 10 
51 22 31 32 46 52 24 02 
17 36 39 27 60 15 18 48 
07 35 28 57 03 40 49 41 
06 25 61 44 19 42 30 33 
