P2
08 08
64
31 08 57 64 07 45 30 18 
11 38 48 22 56 06 16 63 
24 62 42 36 03 43 46 04 
53 25 27 21 47 14 61 12 
19 58 29 10 33 51 01 59 
28 15 35 32 20 49 26 55 
40 37 13 23 60 02 41 44 
54 17 09 52 34 50 39 05 
