P2
08 08
64
05 06 51 23 60 50 61 04 
35 64 40 13 01 46 43 18 
30 25 02 38 42 29 45 49 
28 58 26 48 27 52 11 10 
62 21 59 33 34 17 19 15 
39 08 55 32 53 09 07 57 
14 22 24 36 31 16 54 63 
47 56 03 37 12 41 20 44 
