P2
08 08
64
57 23 26 02 32 64 04 52 
18 49 25 30 07 34 37 60 
12 41 47 46 50 06 14 44 
54 22 55 09 01 35 51 33 
28 03 15 56 36 48 63 11 
38 21 39 29 53 40 16 24 
43 59 08 27 62 13 17 31 
10 42 45 61 19 20 58 05 
