P2
08 08
64
49 29 11 40 44 43 35 09 
61 03 15 41 13 33 63 31 
26 08 16 56 48 52 53 01 
19 39 55 42 32 37 02 34 
62 59 21 24 12 17 18 47 
07 36 38 05 60 64 20 30 
22 28 54 27 45 04 23 57 
14 58 50 25 06 10 46 51 
