P2
08 08
64
16 40 21 34 26 61 08 54 
58 51 30 50 02 12 43 14 
38 55 47 18 23 27 15 37 
25 52 10 28 39 44 49 13 
41 35 42 56 06 11 64 05 
20 01 29 33 63 36 46 32 
59 09 24 22 48 07 31 60 
03 17 57 19 53 62 04 45 
