P2
08 08
64
03 33 29 31 32 19 61 52 
50 45 44 49 13 28 26 05 
23 54 09 38 25 36 16 59 
42 34 41 07 63 60 01 12 
48 17 64 30 37 04 40 20 
62 47 24 10 06 53 15 43 
11 08 14 39 57 58 55 18 
21 22 35 56 27 02 46 51 
