P2
08 08
64
48 53 13 09 57 46 18 16 
38 03 60 36 27 28 14 54 
55 12 44 08 41 37 61 02 
05 25 21 32 29 39 47 62 
22 10 33 42 52 35 40 26 
58 51 49 19 20 01 17 45 
04 43 06 50 11 59 56 31 
30 63 34 64 23 15 07 24 
