P2
08 08
64
44 01 58 27 50 07 26 47 
18 56 46 62 12 22 29 15 
45 61 42 41 13 11 39 08 
51 36 05 20 30 54 21 43 
24 16 06 19 55 37 40 63 
04 28 59 02 35 31 49 52 
57 48 34 25 32 38 03 23 
17 14 10 64 33 60 53 09 
