P2
08 08
64
59 19 06 42 10 37 33 54 
46 03 62 24 58 36 26 05 
20 55 63 08 31 04 39 40 
07 18 01 57 25 50 64 38 
53 27 44 12 22 61 13 28 
09 48 47 14 56 16 21 49 
34 60 02 52 15 45 23 29 
32 30 35 51 43 11 41 17 
