P2
08 08
64
14 01 50 15 58 64 16 42 
19 48 37 60 20 22 36 18 
43 41 23 03 12 30 46 62 
06 17 51 56 39 08 55 28 
54 59 35 05 31 38 34 04 
63 49 32 11 40 10 26 29 
09 24 07 57 47 27 45 44 
52 21 25 53 13 61 02 33 
