P2
08 08
64
22 07 33 44 52 54 16 32 
58 47 38 18 15 46 21 17 
05 02 39 23 49 25 61 56 
19 64 57 04 10 09 37 60 
29 55 03 40 11 30 50 42 
63 14 51 24 53 41 01 13 
28 45 08 48 43 20 62 06 
36 26 31 59 27 35 12 34 
