P2
08 08
64
18 51 13 12 64 39 26 37 
50 62 15 05 30 49 29 20 
35 46 23 60 25 19 44 08 
04 36 27 45 22 59 33 34 
42 32 52 53 07 17 48 09 
41 03 56 14 38 47 21 40 
54 28 63 10 43 06 01 55 
16 02 11 61 31 24 58 57 
