P2
08 08
64
54 31 59 39 25 22 26 04 
43 30 12 41 18 47 24 45 
20 27 40 48 03 44 36 42 
05 13 21 08 61 57 35 60 
16 62 09 15 51 10 34 63 
38 64 56 06 23 17 19 37 
29 01 52 53 46 14 58 07 
55 32 11 50 33 49 28 02 
