P2
08 08
64
02 55 45 38 47 09 34 30 
20 51 16 07 53 44 17 52 
22 32 43 36 03 35 63 26 
62 18 12 58 04 60 13 33 
25 21 37 23 14 57 59 24 
31 28 54 27 19 46 40 15 
50 49 42 10 64 01 05 39 
48 06 11 61 56 08 29 41 
