P2
08 08
64
57 51 35 52 02 05 50 08 
31 10 44 56 39 34 28 18 
43 29 27 30 11 63 20 37 
19 09 13 60 40 58 14 47 
03 53 16 25 46 26 42 49 
54 24 59 01 48 07 06 61 
38 22 21 32 33 55 36 23 
15 62 45 04 41 12 64 17 
