P2
08 08
64
21 64 19 55 27 16 54 04 
45 33 13 43 10 22 46 48 
51 01 02 41 39 37 31 58 
61 29 32 50 57 11 05 15 
08 38 62 24 42 47 03 36 
12 23 63 26 28 18 56 34 
53 20 25 07 17 49 59 30 
09 52 44 14 40 60 06 35 
