P2
08 08
64
24 27 34 48 23 13 33 58 
56 63 08 10 26 54 21 22 
07 20 36 47 51 05 37 57 
11 28 50 32 60 52 12 15 
40 59 25 16 41 30 14 35 
31 44 61 62 04 03 46 09 
53 01 29 02 49 39 42 45 
38 18 17 43 06 64 55 19 
