P2
08 08
64
25 59 58 46 10 24 37 01 
63 03 18 57 47 21 38 13 
12 23 53 08 35 55 29 45 
30 51 17 19 15 22 54 52 
41 05 09 56 62 42 11 34 
40 32 31 27 36 26 61 07 
33 48 14 04 49 20 28 64 
16 39 60 43 06 50 02 44 
