P2
08 08
64
42 44 43 14 29 22 51 15 
23 54 02 38 46 35 17 45 
27 30 18 21 62 64 25 13 
07 08 61 31 03 34 56 60 
53 10 09 39 33 28 48 40 
55 37 59 26 11 49 04 19 
47 57 05 50 52 12 01 36 
06 20 63 41 24 16 58 32 
