P2
08 08
64
34 31 01 40 60 62 11 21 
39 19 56 05 16 35 52 38 
02 27 28 45 36 13 59 50 
57 03 18 44 20 64 17 37 
46 63 25 22 33 51 14 06 
04 47 48 43 53 12 24 29 
55 61 26 07 32 08 41 30 
23 09 58 54 10 15 42 49 
