P2
08 08
64
04 37 59 39 05 23 33 60 
28 55 17 14 56 44 01 45 
46 12 26 54 19 31 48 24 
20 32 58 06 43 16 63 22 
35 36 10 09 40 50 42 38 
25 52 34 61 62 21 03 02 
49 29 41 47 08 11 57 18 
53 07 15 30 27 64 13 51 
