P2
08 08
64
51 11 24 48 47 04 32 43 
42 14 60 08 01 40 56 39 
17 63 05 23 62 50 10 30 
58 55 37 06 02 53 34 15 
20 29 44 61 36 35 16 19 
52 28 38 33 49 25 26 09 
13 03 21 27 45 41 64 46 
07 57 31 54 18 12 22 59 
