P2
08 08
64
47 01 37 36 48 04 45 42 
43 09 11 57 39 13 26 62 
21 07 49 14 58 63 25 23 
41 61 38 05 31 15 52 17 
22 40 55 33 32 60 08 10 
16 44 12 30 29 59 24 46 
51 34 02 35 03 28 53 54 
19 64 56 50 20 18 27 06 
