P2
08 08
64
13 05 15 33 54 62 49 29 
30 52 37 35 18 40 14 34 
02 55 43 22 56 01 36 45 
47 11 10 42 44 24 61 21 
03 50 32 63 06 08 41 57 
53 39 25 07 59 51 09 17 
48 20 60 12 04 58 27 31 
64 28 38 46 19 16 23 26 
