P2
08 08
64
54 03 55 49 37 02 43 17 
16 20 41 12 33 48 38 52 
57 62 53 01 30 46 05 06 
27 47 19 44 23 21 34 45 
11 29 10 59 22 18 60 51 
24 08 42 25 39 32 40 50 
64 28 36 14 61 35 09 13 
07 63 04 56 15 58 31 26 
