P2
08 08
64
48 15 47 16 24 41 46 23 
32 09 59 61 33 26 36 04 
54 05 50 27 57 18 43 06 
39 35 31 13 45 63 14 20 
21 58 07 64 37 02 22 49 
51 44 11 08 01 28 55 62 
12 60 38 29 10 52 19 40 
03 34 17 42 53 30 25 56 
