P2
08 08
64
18 48 04 54 27 47 12 50 
40 15 61 28 09 20 52 35 
43 17 01 44 37 14 49 55 
45 33 62 59 08 22 21 10 
39 57 38 11 23 30 36 26 
46 25 51 34 29 53 03 19 
13 58 41 06 64 42 31 05 
16 07 02 24 63 32 56 60 
