P2
08 08
64
20 48 37 38 40 54 22 01 
07 50 10 27 52 06 62 46 
08 19 61 51 30 45 21 25 
57 05 29 17 03 31 58 60 
33 35 42 13 44 23 11 59 
16 39 24 12 36 41 64 28 
56 49 14 55 02 34 18 32 
63 15 43 47 53 26 04 09 
