P2
08 08
64
06 13 42 48 60 15 25 51 
17 35 49 05 54 22 58 20 
34 33 52 46 10 36 41 08 
02 53 47 18 01 64 19 56 
61 40 31 63 09 16 29 11 
37 38 04 23 39 57 12 50 
59 03 07 30 32 24 62 43 
44 45 28 27 55 26 14 21 
