P2
08 08
64
09 33 11 28 05 51 59 64 
21 55 18 22 27 62 01 54 
29 48 49 37 26 15 43 13 
10 04 45 61 53 35 20 32 
40 14 30 41 47 36 08 44 
56 50 31 46 25 03 42 07 
57 17 16 02 58 52 24 34 
38 39 60 23 19 06 63 12 
