P2
08 08
64
22 16 32 01 19 49 61 60 
20 33 52 50 63 05 13 24 
23 55 14 39 28 07 46 48 
29 09 12 64 18 30 57 41 
38 47 56 36 42 02 08 31 
25 53 45 03 11 62 26 35 
59 37 15 27 58 54 06 04 
44 10 34 40 21 51 43 17 
