P2
08 08
64
63 01 19 16 28 40 51 42 
08 52 18 31 39 22 33 57 
29 34 09 20 58 50 12 48 
47 45 38 32 04 24 64 06 
15 41 37 54 21 17 49 26 
61 05 43 53 62 02 23 11 
30 27 60 10 35 59 25 14 
07 55 36 44 13 46 03 56 
