P2
08 08
64
04 02 41 36 62 35 20 60 
27 22 21 25 39 59 44 23 
08 09 50 45 52 42 14 40 
31 54 01 46 10 37 63 18 
58 34 17 19 51 06 28 47 
64 30 24 07 29 38 15 53 
55 48 49 56 05 11 33 03 
13 61 57 26 12 32 43 16 
