P2
08 08
64
03 31 15 48 33 53 19 58 
44 59 50 07 14 09 22 55 
60 06 21 38 23 52 47 13 
56 25 29 28 10 49 62 01 
12 05 42 02 54 57 24 64 
11 26 36 61 51 20 37 18 
39 45 40 46 34 16 32 08 
35 63 27 30 41 04 17 43 
