P2
08 08
64
02 37 50 38 30 06 61 36 
31 48 56 20 32 35 25 13 
04 39 29 47 63 22 07 49 
28 57 34 10 11 17 43 60 
26 42 41 52 46 27 18 08 
54 03 44 55 09 62 21 12 
64 19 05 24 16 33 40 59 
51 15 01 14 53 58 45 23 
