P2
08 08
64
59 26 23 52 25 08 28 39 
12 10 04 51 60 50 62 11 
34 44 56 09 03 46 05 63 
24 38 18 42 27 41 57 13 
36 29 40 20 35 48 31 21 
64 22 15 01 47 07 55 49 
17 37 61 32 30 58 06 19 
14 54 43 53 33 02 16 45 
