P2
08 08
64
64 05 58 35 42 21 25 10 
37 63 11 53 55 19 04 18 
22 31 07 13 29 56 62 40 
20 28 39 16 27 33 50 47 
06 30 36 48 15 09 59 57 
46 08 60 24 38 49 34 01 
51 41 32 26 02 61 03 44 
14 54 17 45 52 12 23 43 
