P2
08 08
64
19 45 25 54 23 41 33 20 
51 63 28 03 47 12 38 18 
07 61 08 13 64 26 42 39 
40 32 06 49 16 50 53 14 
34 29 58 46 04 31 01 57 
11 05 56 48 24 36 21 59 
55 15 52 30 60 02 37 09 
43 10 27 17 22 62 35 44 
