P2
08 08
64
20 45 02 01 58 56 35 43 
49 17 30 55 19 53 22 15 
54 27 47 33 18 14 28 39 
59 34 29 63 60 07 05 03 
50 32 64 13 12 25 41 23 
04 11 48 61 46 06 40 44 
16 52 31 24 26 37 38 36 
08 42 09 10 21 62 51 57 
