P2
08 08
64
05 06 37 46 59 35 41 31 
01 45 53 15 14 30 47 55 
51 29 33 54 58 09 08 18 
16 44 32 17 04 61 26 60 
27 52 22 39 38 36 43 03 
56 25 20 49 57 24 10 19 
42 48 13 28 23 02 64 40 
62 11 50 12 07 63 21 34 
