P2
08 08
64
46 48 12 60 34 50 06 04 
55 19 05 31 29 44 62 15 
23 14 40 42 49 63 07 22 
54 18 21 35 09 32 27 64 
08 26 59 01 47 38 36 45 
02 41 28 17 51 10 58 53 
16 37 43 61 11 20 39 33 
56 57 52 13 30 03 25 24 
