P2
08 08
64
37 44 40 09 43 02 35 50 
64 14 21 28 19 46 58 10 
06 48 22 47 63 16 01 57 
05 42 32 59 39 52 07 24 
49 23 41 27 18 34 60 08 
45 38 36 17 61 26 12 25 
51 31 15 11 13 29 54 56 
03 20 53 62 04 55 33 30 
