P2
08 08
64
62 22 50 07 52 05 06 56 
08 42 14 64 48 29 39 16 
59 13 09 40 46 02 60 31 
49 24 44 15 18 47 35 28 
34 30 63 53 21 36 04 19 
01 41 12 23 20 54 58 51 
10 43 57 55 17 26 25 27 
37 45 11 03 38 61 33 32 
