P2
08 08
64
13 36 31 49 33 60 15 23 
29 06 59 03 47 25 53 38 
62 02 46 05 63 07 58 17 
04 45 10 57 42 35 11 56 
21 37 61 55 01 19 22 44 
52 27 09 16 32 50 54 20 
51 43 18 41 30 24 39 14 
28 64 26 34 12 40 08 48 
