P2
08 08
64
31 64 11 49 43 12 26 24 
19 08 50 28 41 63 34 17 
58 45 06 21 36 07 32 55 
10 25 60 53 30 22 40 20 
04 48 01 54 33 57 61 02 
56 18 27 38 09 44 39 29 
35 37 46 03 52 13 23 51 
47 15 59 14 16 42 05 62 
