P2
08 08
64
27 35 08 24 52 61 39 14 
17 20 46 36 28 18 63 32 
01 58 41 40 38 07 13 62 
29 25 54 57 19 34 12 30 
48 06 02 50 15 42 33 64 
56 47 11 21 22 51 03 49 
45 59 43 23 26 16 44 04 
37 10 55 09 60 31 53 05 
