P2
08 08
64
14 01 47 16 27 51 48 56 
10 12 38 62 36 55 19 28 
35 03 63 29 37 11 57 25 
49 61 46 34 09 04 17 40 
64 22 02 42 39 59 26 06 
08 58 13 07 44 43 54 33 
20 50 30 18 45 32 24 41 
60 53 21 52 23 05 15 31 
