P2
08 08
64
04 27 11 63 14 64 41 36 
09 47 08 28 62 53 48 05 
52 40 20 03 45 21 18 61 
32 56 51 34 07 17 30 33 
35 50 46 29 25 54 06 15 
57 13 38 58 23 22 37 12 
16 26 44 43 24 19 49 39 
55 01 42 02 60 10 31 59 
