P2
08 08
64
08 61 56 13 52 55 01 14 
21 09 10 64 51 19 33 53 
47 20 22 41 54 26 32 18 
25 45 43 39 31 62 03 12 
24 29 57 48 34 23 40 05 
46 04 28 27 15 36 44 60 
59 50 06 17 07 37 49 35 
30 42 38 11 16 02 58 63 
