P2
08 08
64
29 22 05 44 41 62 02 55 
28 58 54 38 11 42 04 25 
21 61 36 18 31 50 26 17 
64 01 13 15 53 09 48 57 
07 30 35 49 45 23 59 12 
56 24 06 19 43 20 40 52 
39 27 60 14 33 08 47 32 
16 37 51 63 03 46 34 10 
