P2
08 08
64
63 26 12 33 37 49 08 32 
03 50 19 59 47 29 38 15 
61 17 22 10 62 04 36 48 
02 39 51 16 05 35 54 58 
21 28 45 64 11 30 27 34 
41 57 42 07 01 43 60 09 
14 20 13 46 44 52 31 40 
55 23 56 25 53 18 06 24 
