P2
08 08
64
03 07 42 41 57 01 63 46 
64 24 27 56 47 09 28 05 
44 22 25 26 15 36 54 38 
29 49 04 17 40 45 14 62 
20 60 21 13 61 50 02 33 
53 19 58 43 18 23 35 11 
39 31 51 34 06 37 52 10 
08 48 32 30 16 59 12 55 
