P2
08 08
64
39 30 17 37 53 18 24 42 
11 41 46 27 09 20 62 44 
51 07 21 15 43 60 50 13 
31 48 23 56 22 02 19 59 
58 14 57 05 45 40 16 25 
06 63 28 52 55 10 34 12 
26 03 35 32 04 49 47 64 
38 54 33 36 29 61 08 01 
