P2
08 08
64
49 46 02 64 12 42 24 21 
35 10 27 58 50 18 08 54 
16 37 41 03 31 30 57 45 
06 25 48 09 55 38 17 62 
63 52 15 19 29 34 43 05 
33 11 36 39 56 53 04 28 
26 59 40 07 14 44 47 23 
32 20 51 61 13 01 60 22 
