P2
08 08
64
09 34 31 18 49 25 50 44 
59 07 22 24 10 64 57 17 
63 08 33 61 47 04 05 39 
37 35 02 60 53 46 11 16 
03 43 51 13 40 14 54 42 
15 26 01 45 28 56 48 41 
38 52 62 20 06 30 23 29 
36 55 58 19 27 21 12 32 
