P2
08 08
64
12 10 42 33 19 24 57 63 
15 61 16 27 17 39 48 37 
35 41 56 53 30 08 32 05 
62 02 28 07 47 45 18 51 
49 14 54 25 52 22 04 40 
36 13 09 20 55 43 46 38 
50 59 11 64 06 21 26 23 
01 60 44 31 34 58 29 03 
