P2
08 08
64
20 32 61 44 36 15 38 14 
53 10 24 27 39 49 07 51 
64 29 57 04 23 35 11 37 
26 16 09 34 55 25 52 43 
02 54 46 59 03 42 33 21 
17 48 05 45 13 58 12 62 
56 63 18 19 50 06 47 01 
22 08 40 28 41 30 60 31 
