P2
08 08
64
48 42 44 14 04 25 50 33 
28 34 15 19 36 23 52 53 
47 01 22 37 43 30 29 51 
07 35 31 59 55 54 13 06 
27 46 11 38 32 45 49 12 
03 61 10 57 08 18 41 62 
60 02 64 16 24 56 21 17 
40 39 63 20 58 09 05 26 
