P2
08 08
64
14 35 01 07 62 42 49 50 
05 64 57 39 23 18 16 38 
51 52 09 54 15 41 10 28 
47 17 33 29 22 36 63 13 
40 60 02 59 26 21 46 06 
48 20 44 34 55 19 03 37 
31 04 53 27 12 58 43 32 
24 08 61 11 45 25 30 56 
