P2
08 08
64
32 55 06 64 20 02 35 46 
11 48 39 24 28 44 29 37 
23 60 08 31 58 43 34 03 
50 07 41 40 17 26 63 16 
10 13 21 04 51 57 45 59 
49 15 30 52 42 14 22 36 
47 53 61 12 25 56 05 01 
38 09 54 33 19 18 27 62 
