P2
08 08
64
40 22 28 60 13 38 27 32 
04 41 20 07 52 33 59 44 
35 63 31 37 17 01 34 42 
02 12 30 46 55 56 48 11 
64 51 21 14 05 61 19 25 
03 15 39 49 57 36 45 16 
58 06 29 23 53 26 18 47 
54 50 62 24 08 09 10 43 
