P2
08 08
64
07 30 51 55 35 05 40 37 
56 29 22 24 63 20 15 31 
25 36 59 23 26 54 03 34 
08 16 44 48 33 49 43 19 
62 58 17 06 12 46 41 18 
61 04 38 39 53 01 50 14 
09 45 02 13 10 64 57 60 
32 42 27 52 28 21 11 47 
