P2
08 08
64
27 42 45 39 23 02 38 44 
41 10 48 57 06 29 64 05 
11 15 46 26 55 40 49 18 
30 37 33 54 43 24 14 25 
61 58 32 08 07 63 12 19 
03 60 09 01 47 50 59 31 
52 17 34 53 28 16 04 56 
35 21 13 22 51 36 20 62 
