P2
08 08
64
63 03 27 11 28 58 54 16 
59 13 40 14 33 42 34 25 
52 45 43 47 05 06 24 38 
36 35 46 29 53 17 18 26 
09 19 49 62 32 23 56 10 
12 64 07 01 37 48 31 60 
08 61 04 57 22 51 02 55 
21 20 44 39 50 15 41 30 
