P2
08 08
64
26 37 25 53 24 16 59 20 
44 61 10 06 63 35 07 34 
02 12 58 47 62 55 23 01 
32 36 54 03 49 50 21 15 
45 13 41 52 17 33 30 29 
56 05 11 60 22 04 38 64 
28 39 43 31 14 19 40 46 
27 57 18 08 09 48 42 51 
