P2
08 08
64
22 42 13 43 56 37 08 39 
05 36 48 03 52 61 06 49 
30 26 57 27 01 09 50 60 
55 23 17 35 29 51 40 10 
33 44 14 54 11 25 15 64 
46 12 20 07 62 34 63 16 
24 58 59 38 28 02 47 04 
45 19 32 53 21 41 31 18 
