P2
08 08
64
59 27 06 23 50 39 13 43 
58 37 19 08 18 46 32 42 
14 41 40 57 21 02 30 55 
49 17 48 47 33 26 28 12 
35 51 45 61 05 34 07 22 
10 38 36 09 64 15 63 25 
11 29 04 03 53 44 56 60 
24 20 62 52 16 54 31 01 
