P2
08 08
64
37 01 50 35 19 54 16 48 
56 64 18 08 39 09 07 59 
03 52 13 32 31 25 62 42 
40 26 36 47 23 17 22 49 
29 14 04 33 57 55 24 44 
15 11 53 46 45 27 61 02 
60 51 58 38 12 30 05 06 
20 41 28 21 34 43 63 10 
