P2
08 08
64
58 36 56 25 14 31 19 21 
63 23 03 05 64 44 30 28 
49 59 18 52 04 07 34 37 
02 38 43 55 11 60 35 16 
08 22 20 42 47 54 26 41 
29 09 53 17 62 12 33 45 
01 46 61 40 10 13 32 57 
50 27 06 24 48 39 51 15 
