P2
08 08
64
35 44 31 48 23 06 62 11 
34 53 24 38 20 25 64 02 
47 01 39 36 19 45 18 55 
59 27 03 21 09 41 49 51 
12 04 40 14 61 42 29 58 
28 16 46 57 50 15 05 43 
37 63 17 33 22 32 26 30 
08 52 60 13 56 54 07 10 
