P2
08 08
64
15 47 48 03 36 41 49 21 
62 53 16 13 02 39 20 55 
29 63 19 61 08 01 51 28 
37 06 27 32 46 44 12 56 
07 45 09 54 64 33 43 05 
22 11 57 60 10 24 50 26 
58 31 25 14 42 38 18 34 
30 04 59 23 52 40 17 35 
