P2
08 08
64
23 52 62 50 14 28 16 15 
38 13 26 33 64 18 44 24 
07 03 51 47 48 57 17 30 
56 34 29 43 25 08 12 53 
40 46 06 39 02 41 54 32 
45 36 05 11 37 49 35 42 
31 55 22 10 61 58 19 04 
20 21 59 27 09 01 63 60 
