P2
08 08
64
46 62 20 35 15 56 07 19 
38 36 21 23 25 32 52 33 
10 41 45 42 24 26 08 64 
58 06 34 53 22 49 29 09 
01 54 31 63 17 05 30 59 
18 16 48 27 50 11 39 51 
61 02 57 03 47 37 40 13 
28 43 04 14 60 44 55 12 
