P2
08 08
64
15 13 32 42 44 50 53 11 
28 30 46 31 17 59 39 10 
57 41 47 02 62 04 23 24 
55 45 05 01 20 64 12 58 
03 38 06 40 60 07 43 63 
33 21 48 52 29 34 25 18 
08 37 49 36 09 16 51 54 
61 35 27 56 19 26 14 22 
