P2
08 08
64
33 63 12 36 15 17 25 59 
26 39 52 47 51 09 35 01 
50 19 08 58 43 49 31 02 
30 18 32 29 13 45 38 55 
28 03 40 48 42 05 60 34 
10 54 07 06 11 64 46 62 
61 27 53 20 41 14 21 23 
22 37 56 16 44 57 04 24 
