P2
08 08
64
40 31 51 12 05 45 55 21 
14 22 61 18 34 35 20 56 
36 37 10 11 60 33 54 19 
25 47 44 58 03 02 49 32 
24 57 01 63 38 26 28 23 
42 06 04 41 59 46 09 53 
15 52 27 07 48 43 29 39 
64 08 62 50 13 30 16 17 
